<svg width="598" height="354" viewBox="0 0 598 354" fill="none" xmlns="http://www.w3.org/2000/svg">
<g clip-path="url(#clip0_7_279)">
<g opacity="0.1">
<path d="M439.669 348.779C446.051 348.779 451.226 341.875 451.226 333.359C451.226 324.844 446.051 317.94 439.669 317.94C433.286 317.94 428.112 324.844 428.112 333.359C428.112 341.875 433.286 348.779 439.669 348.779Z" fill="#3F3D56"/>
<path d="M439.669 254.546C446.051 254.546 451.226 247.643 451.226 239.127C451.226 230.611 446.051 223.708 439.669 223.708C433.286 223.708 428.112 230.611 428.112 239.127C428.112 247.643 433.286 254.546 439.669 254.546Z" fill="#3F3D56"/>
<path d="M439.669 235.698C446.051 235.698 451.226 228.794 451.226 220.279C451.226 211.763 446.051 204.859 439.669 204.859C433.286 204.859 428.112 211.763 428.112 220.279C428.112 228.794 433.286 235.698 439.669 235.698Z" fill="#3F3D56"/>
<path opacity="0.1" d="M384.075 126.19C384.056 138.846 388.23 151.137 395.92 161.072C389.498 169.394 385.504 179.391 384.393 189.919C383.282 200.447 385.099 211.081 389.637 220.606C394.175 230.13 401.25 238.161 410.055 243.779C418.859 249.398 429.036 252.377 439.423 252.377C449.81 252.377 459.987 249.398 468.791 243.779C477.595 238.161 484.671 230.13 489.209 220.606C493.747 211.081 495.564 200.447 494.453 189.919C493.342 179.391 489.347 169.394 482.926 161.072C490.344 151.471 384.075 119.854 384.075 126.19Z" fill="black"/>
</g>
<path d="M598 339.328C598 342.992 571.726 346.341 528.286 348.928C520.386 349.392 511.92 349.835 502.943 350.251C495.185 350.606 487.055 350.942 478.552 351.259C470.313 351.557 461.759 351.835 452.89 352.091C424.878 352.907 393.911 353.493 361.013 353.787C353.029 353.861 344.939 353.918 336.743 353.957C328.204 353.996 319.568 354.014 310.834 354.011C152.236 354.011 23.6741 347.445 23.6741 339.344C23.6741 331.242 152.236 324.676 310.834 324.676C379.115 324.676 441.819 325.898 491.103 327.925L496.492 328.149H496.523C558.604 330.831 598 334.869 598 339.328Z" fill="#3F3D56"/>
<path opacity="0.15" d="M598 339.328C598 342.992 571.726 346.341 528.286 348.928C520.386 349.392 511.92 349.835 502.943 350.251C495.185 350.606 487.055 350.942 478.552 351.259C470.313 351.557 461.759 351.835 452.89 352.091C424.878 352.907 393.911 353.493 361.013 353.787C353.029 353.861 344.939 353.918 336.743 353.957C328.204 353.996 319.568 354.014 310.834 354.011C152.236 354.011 23.6741 347.445 23.6741 339.344C23.6741 331.242 152.236 324.676 310.834 324.676C379.115 324.676 441.819 325.898 491.103 327.925L496.492 328.149H496.523C558.604 330.831 598 334.869 598 339.328Z" fill="black"/>
<path d="M574.326 336.746C574.326 339.808 548.052 342.613 504.612 344.746C496.717 345.136 488.246 345.504 479.274 345.85C471.513 346.149 463.383 346.43 454.883 346.693C446.644 346.942 438.09 347.175 429.221 347.392C401.204 348.075 370.237 348.565 337.339 348.811C329.362 348.871 321.272 348.917 313.068 348.949C304.53 348.981 295.896 348.997 287.166 348.997C128.567 348.997 0 343.509 0 336.73C0 329.951 128.567 324.463 287.166 324.463C355.441 324.463 418.145 325.482 467.429 327.178L472.818 327.365H472.854C534.956 329.642 574.326 332.997 574.326 336.746Z" fill="#3F3D56"/>
<path d="M357.393 190.736C339.542 190.736 325.473 183.513 315.187 169.066C304.902 154.62 299.759 137.119 299.759 116.563C299.759 95.8695 304.732 78.4041 314.68 64.1672C324.627 49.9304 338.659 42.8191 356.775 42.8333C375.987 42.8333 390.461 50.3339 400.2 65.3353C409.938 80.3366 414.809 97.6989 414.812 117.422C414.812 137.003 409.772 154.12 399.692 168.773C389.612 183.426 375.512 190.747 357.393 190.736ZM357.916 174.485C369.66 174.485 378.437 169.267 384.248 158.831C390.059 148.396 392.964 135.24 392.964 119.364C392.964 101.692 389.991 87.2222 384.044 75.9543C378.097 64.6864 368.976 59.0507 356.681 59.0471C333.312 59.0471 321.628 77.9703 321.628 115.817C321.628 154.933 333.72 174.489 357.905 174.485H357.916ZM363.796 330.111H337.977L507.008 45.7294H532.34L363.796 330.111ZM513.333 333.029C495.213 333.029 481.087 325.74 470.955 311.161C460.823 296.583 455.736 279.08 455.694 258.653C455.694 238.098 460.633 220.702 470.51 206.465C480.388 192.228 494.455 185.117 512.71 185.131C531.786 185.131 546.159 192.632 555.831 207.633C565.503 222.634 570.341 239.995 570.344 259.714C570.344 279.168 565.338 296.252 555.324 310.969C545.31 325.686 531.31 333.039 513.323 333.029H513.333ZM513.636 316.362C525.324 316.362 534.055 311.232 539.827 300.974C545.6 290.716 548.486 277.614 548.486 261.667C548.486 244.599 545.565 230.286 539.722 218.727C533.88 207.167 524.779 201.378 512.417 201.361C488.913 201.361 477.16 220.284 477.16 258.13C477.153 296.955 489.308 316.365 513.626 316.362H513.636Z" fill="#3F3D56"/>
<path d="M357.393 190.736C339.542 190.736 325.473 183.513 315.187 169.066C304.902 154.62 299.759 137.119 299.759 116.563C299.759 95.8695 304.732 78.4041 314.68 64.1672C324.627 49.9304 338.659 42.8191 356.775 42.8333C375.987 42.8333 390.461 50.3339 400.2 65.3353C409.938 80.3366 414.809 97.6989 414.812 117.422C414.812 137.003 409.772 154.12 399.692 168.773C389.612 183.426 375.512 190.747 357.393 190.736ZM357.916 174.485C369.66 174.485 378.437 169.267 384.248 158.831C390.059 148.396 392.964 135.24 392.964 119.364C392.964 101.692 389.991 87.2222 384.044 75.9543C378.097 64.6864 368.976 59.0507 356.681 59.0471C333.312 59.0471 321.628 77.9703 321.628 115.817C321.628 154.933 333.72 174.489 357.905 174.485H357.916ZM363.796 330.111H337.977L507.008 45.7294H532.34L363.796 330.111ZM513.333 333.029C495.213 333.029 481.087 325.74 470.955 311.161C460.823 296.583 455.736 279.08 455.694 258.653C455.694 238.098 460.633 220.702 470.51 206.465C480.388 192.228 494.455 185.117 512.71 185.131C531.786 185.131 546.159 192.632 555.831 207.633C565.503 222.634 570.341 239.995 570.344 259.714C570.344 279.168 565.338 296.252 555.324 310.969C545.31 325.686 531.31 333.039 513.323 333.029H513.333ZM513.636 316.362C525.324 316.362 534.055 311.232 539.827 300.974C545.6 290.716 548.486 277.614 548.486 261.667C548.486 244.599 545.565 230.286 539.722 218.727C533.88 207.167 524.779 201.378 512.417 201.361C488.913 201.361 477.16 220.284 477.16 258.13C477.153 296.955 489.308 316.365 513.626 316.362H513.636Z" fill="#3F3D56"/>
<path opacity="0.15" d="M357.393 190.736C339.542 190.736 325.473 183.513 315.187 169.066C304.902 154.62 299.759 137.119 299.759 116.563C299.759 95.8695 304.732 78.4041 314.68 64.1672C324.627 49.9304 338.659 42.8191 356.775 42.8333C375.987 42.8333 390.461 50.3339 400.2 65.3353C409.938 80.3366 414.809 97.6989 414.812 117.422C414.812 137.003 409.772 154.12 399.692 168.773C389.612 183.426 375.512 190.747 357.393 190.736ZM357.916 174.485C369.66 174.485 378.437 169.267 384.248 158.831C390.059 148.396 392.964 135.24 392.964 119.364C392.964 101.692 389.991 87.2222 384.044 75.9543C378.097 64.6864 368.976 59.0507 356.681 59.0471C333.312 59.0471 321.628 77.9703 321.628 115.817C321.628 154.933 333.72 174.489 357.905 174.485H357.916ZM363.796 330.111H337.977L507.008 45.7294H532.34L448.068 187.92L363.796 330.111ZM513.333 333.029C495.213 333.029 481.087 325.74 470.955 311.161C460.823 296.583 455.736 279.08 455.694 258.653C455.694 238.098 460.633 220.702 470.51 206.465C480.388 192.228 494.455 185.117 512.71 185.131C531.786 185.131 546.159 192.632 555.831 207.633C565.503 222.634 570.341 239.995 570.344 259.714C570.344 279.168 565.338 296.252 555.324 310.969C545.31 325.686 531.31 333.039 513.323 333.029H513.333ZM513.636 316.362C525.324 316.362 534.055 311.232 539.827 300.974C545.6 290.716 548.486 277.614 548.486 261.667C548.486 244.599 545.565 230.286 539.722 218.727C533.88 207.167 524.779 201.378 512.417 201.361C488.913 201.361 477.16 220.284 477.16 258.13C477.153 296.955 489.308 316.365 513.626 316.362H513.636Z" fill="#89A666"/>
<path d="M341.174 190.736C323.323 190.736 309.254 183.513 298.969 169.066C288.683 154.62 283.54 137.119 283.54 116.563C283.54 95.8695 288.514 78.4041 298.461 64.1672C308.409 49.9304 322.44 42.8191 340.557 42.8333C359.768 42.8333 374.243 50.3339 383.981 65.3353C393.719 80.3366 398.59 97.6989 398.593 117.422C398.593 137.003 393.553 154.12 383.473 168.773C373.393 183.426 359.294 190.747 341.174 190.736ZM341.697 174.485C353.441 174.485 362.218 169.267 368.029 158.831C373.84 148.396 376.745 135.24 376.745 119.364C376.745 101.692 373.772 87.2222 367.825 75.9543C361.878 64.6864 352.757 59.0507 340.462 59.0471C317.093 59.0471 305.409 77.9703 305.409 115.817C305.409 154.933 317.502 174.489 341.687 174.485H341.697ZM347.578 330.111H321.759L490.789 45.7294H516.122L347.578 330.111ZM497.114 333.029C478.995 333.029 464.869 325.74 454.736 311.161C444.604 296.583 439.517 279.08 439.475 258.653C439.475 238.098 444.414 220.702 454.292 206.465C464.169 192.228 478.236 185.117 496.492 185.131C515.567 185.131 529.941 192.632 539.613 207.633C549.285 222.634 554.122 239.995 554.126 259.714C554.126 279.168 549.119 296.252 539.105 310.969C529.091 325.686 515.091 333.039 497.104 333.029H497.114ZM497.418 316.362C509.106 316.362 517.836 311.232 523.608 300.974C529.381 290.716 532.267 277.614 532.267 261.667C532.267 244.599 529.346 230.286 523.504 218.727C517.661 207.167 508.556 201.378 496.188 201.361C472.683 201.361 460.931 220.284 460.931 258.13C460.931 296.955 473.09 316.365 497.407 316.362H497.418Z" fill="white" fill-opacity="0.72"/>
<path d="M397.657 337.248C399.812 333.173 397.364 328.181 394.549 324.543C391.734 320.906 388.302 317.13 388.376 312.495C388.48 305.844 395.407 301.913 400.932 298.382C405.041 295.766 408.831 292.661 412.222 289.134C413.643 287.775 414.817 286.172 415.691 284.398C416.837 281.795 416.8 278.835 416.737 275.987C416.497 266.486 416.036 257 415.356 247.527" stroke="#3F3D56" stroke-width="4" stroke-miterlimit="10"/>
<path d="M425.883 247.005C425.804 245.267 425.297 243.577 424.41 242.091C423.522 240.606 422.281 239.372 420.803 238.503L418.522 243.101L418.59 237.532C417.501 237.208 416.368 237.07 415.236 237.122C413.225 237.218 411.286 237.92 409.666 239.139C408.046 240.358 406.817 242.039 406.134 243.971C405.452 245.902 405.346 247.996 405.831 249.988C406.316 251.98 407.369 253.782 408.858 255.164C410.347 256.546 412.204 257.447 414.195 257.752C416.186 258.058 418.222 257.756 420.044 256.882C421.866 256.009 423.394 254.604 424.433 252.846C425.472 251.088 425.977 249.055 425.883 247.005Z" fill="#89A666"/>
<path d="M407.728 317.268C406.66 319.384 404.91 321.061 402.773 322.019C400.636 322.976 398.241 323.155 395.989 322.526C393.738 321.896 391.767 320.497 390.408 318.562C389.049 316.628 388.383 314.275 388.523 311.9C388.662 309.524 389.599 307.27 391.176 305.515C392.752 303.76 394.873 302.611 397.182 302.261C399.491 301.91 401.848 302.38 403.858 303.59C405.867 304.801 407.408 306.68 408.22 308.911L401.858 314.185L408.869 312.521C408.866 314.174 408.475 315.802 407.728 317.268Z" fill="#89A666"/>
<path d="M402.7 297.102C401.365 297.166 400.03 296.961 398.772 296.499C397.514 296.037 396.358 295.327 395.369 294.409C394.38 293.491 393.579 292.384 393.01 291.15C392.441 289.917 392.116 288.581 392.054 287.219C391.974 285.594 392.276 283.972 392.933 282.489C393.541 281.102 394.44 279.868 395.566 278.874C396.692 277.88 398.018 277.149 399.451 276.734L399.394 281L401.701 276.35C404.399 276.221 407.036 277.19 409.032 279.043C411.029 280.897 412.222 283.483 412.348 286.233C412.474 288.982 411.524 291.671 409.706 293.706C407.888 295.742 405.351 296.958 402.653 297.086L402.7 297.102Z" fill="#89A666"/>
<path d="M427.416 280.339C426.064 280.431 424.708 280.246 423.428 279.797C422.147 279.348 420.967 278.643 419.956 277.724C418.946 276.804 418.126 275.688 417.543 274.442C416.961 273.195 416.629 271.842 416.565 270.463C416.502 269.084 416.709 267.706 417.175 266.409C417.64 265.112 418.355 263.923 419.276 262.911C420.198 261.9 421.308 261.085 422.542 260.516C423.777 259.947 425.11 259.635 426.463 259.597C428.366 259.503 430.256 259.959 431.915 260.915L430.115 265.939L433.819 262.317C435.807 264.165 436.995 266.741 437.121 269.48C437.167 270.441 437.079 271.403 436.859 272.339C436.353 274.538 435.157 276.509 433.453 277.953C431.749 279.396 429.629 280.234 427.416 280.339Z" fill="#89A666"/>
<path opacity="0.1" d="M424.512 249.773C422.163 250.034 419.882 250.781 417.522 250.93C415.163 251.08 412.573 250.504 411.082 248.631C410.276 247.629 409.879 246.354 409.198 245.255C408.556 244.233 407.675 243.388 406.635 242.797C405.981 244.112 405.61 245.555 405.546 247.028C405.483 248.501 405.727 249.971 406.265 251.34C406.802 252.71 407.619 253.946 408.662 254.968C409.705 255.99 410.949 256.774 412.313 257.267C413.676 257.76 415.127 257.952 416.568 257.828C418.01 257.705 419.409 257.27 420.673 256.553C421.936 255.835 423.035 254.851 423.897 253.666C424.758 252.482 425.362 251.123 425.668 249.682C425.281 249.704 424.899 249.73 424.512 249.773Z" fill="black"/>
<path opacity="0.1" d="M427.416 280.339C425.661 280.421 423.916 280.039 422.349 279.23C420.782 278.421 419.447 277.214 418.472 275.724C417.498 274.234 416.918 272.513 416.788 270.728C416.658 268.942 416.983 267.153 417.732 265.533C418.538 266.091 419.233 266.8 419.777 267.624C420.504 268.739 420.944 270.029 421.797 271.053C423.366 272.958 426.092 273.576 428.546 273.464C430.999 273.352 433.375 272.638 435.823 272.398C436.163 272.366 436.509 272.344 436.87 272.334C436.364 274.535 435.167 276.509 433.46 277.954C431.754 279.398 429.632 280.236 427.416 280.339Z" fill="black"/>
<path opacity="0.1" d="M402.7 297.102C401.365 297.166 400.03 296.961 398.772 296.499C397.514 296.037 396.358 295.327 395.369 294.409C394.38 293.491 393.579 292.384 393.01 291.15C392.441 289.917 392.116 288.581 392.054 287.219C391.974 285.594 392.276 283.972 392.933 282.489C393.772 283.059 394.501 283.782 395.083 284.622C395.873 285.758 396.37 287.07 397.296 288.121C399.012 290.067 401.9 290.755 404.5 290.691C407.1 290.627 409.45 290.009 411.956 289.811C411.334 291.849 410.113 293.641 408.457 294.946C406.801 296.251 404.791 297.003 402.7 297.102Z" fill="black"/>
<path opacity="0.1" d="M407.728 317.268C406.544 319.642 404.509 321.46 402.046 322.347C399.583 323.235 396.879 323.123 394.495 322.035C392.111 320.947 390.228 318.966 389.236 316.502C388.244 314.039 388.219 311.281 389.166 308.799C390.004 309.361 390.756 310.046 391.4 310.831C392.368 312.036 393.006 313.401 394.125 314.521C396.218 316.602 399.567 317.46 402.559 317.54C404.286 317.555 406.012 317.464 407.728 317.268Z" fill="#C06431"/>
<path d="M555.135 336.714C557.291 332.639 554.843 327.647 552.028 324.01C549.213 320.372 545.781 316.596 545.854 311.961C545.959 305.311 552.886 301.38 558.411 297.849C562.52 295.232 566.31 292.128 569.701 288.601C571.121 287.242 572.295 285.639 573.17 283.865C574.315 281.262 574.279 278.302 574.216 275.454C573.975 265.953 573.515 256.466 572.835 246.994" stroke="#3F3D56" stroke-width="4" stroke-miterlimit="10"/>
<path d="M583.361 246.471C583.283 244.734 582.776 243.044 581.888 241.558C581 240.072 579.76 238.838 578.281 237.97L576 242.567L576.068 236.999C574.98 236.675 573.847 236.536 572.715 236.588C570.703 236.685 568.765 237.387 567.145 238.606C565.525 239.825 564.296 241.506 563.613 243.437C562.93 245.368 562.825 247.462 563.31 249.455C563.794 251.447 564.848 253.248 566.337 254.63C567.825 256.012 569.683 256.913 571.674 257.219C573.665 257.525 575.7 257.222 577.523 256.349C579.345 255.476 580.872 254.071 581.912 252.313C582.951 250.555 583.455 248.522 583.361 246.471Z" fill="#89A666"/>
<path d="M565.207 316.735C564.138 318.851 562.389 320.528 560.252 321.485C558.114 322.442 555.719 322.621 553.468 321.992C551.217 321.363 549.246 319.964 547.887 318.029C546.527 316.094 545.861 313.742 546.001 311.367C546.141 308.991 547.078 306.737 548.654 304.982C550.231 303.227 552.351 302.078 554.66 301.727C556.969 301.377 559.326 301.846 561.336 303.057C563.346 304.268 564.886 306.146 565.699 308.377L559.337 313.652L566.347 311.988C566.344 313.64 565.953 315.268 565.207 316.735Z" fill="#89A666"/>
<path d="M560.179 296.569C558.843 296.633 557.508 296.428 556.25 295.966C554.993 295.503 553.836 294.793 552.848 293.875C551.859 292.958 551.057 291.85 550.488 290.617C549.92 289.383 549.595 288.048 549.532 286.686C549.453 285.06 549.754 283.439 550.411 281.955C551.019 280.569 551.918 279.335 553.044 278.341C554.171 277.346 555.497 276.616 556.93 276.2L556.872 280.467L559.18 275.816H559.206C560.541 275.753 561.876 275.958 563.134 276.42C564.392 276.882 565.548 277.592 566.537 278.51C567.526 279.428 568.327 280.535 568.896 281.768C569.465 283.002 569.79 284.338 569.853 285.699C569.915 287.061 569.714 288.422 569.261 289.704C568.807 290.986 568.111 292.165 567.21 293.173C566.31 294.181 565.224 294.998 564.014 295.578C562.804 296.158 561.494 296.489 560.158 296.553L560.179 296.569Z" fill="#89A666"/>
<path d="M584.894 279.806C583.543 279.897 582.187 279.713 580.906 279.264C579.625 278.815 578.445 278.11 577.435 277.19C576.425 276.271 575.604 275.155 575.022 273.908C574.44 272.662 574.107 271.309 574.044 269.93C573.981 268.55 574.188 267.172 574.653 265.876C575.119 264.579 575.833 263.39 576.755 262.378C577.677 261.366 578.787 260.552 580.021 259.983C581.255 259.414 582.588 259.101 583.942 259.064C585.845 258.969 587.735 259.426 589.394 260.381L587.594 265.405L591.298 261.784C593.286 263.631 594.473 266.208 594.599 268.947C594.646 269.908 594.558 270.87 594.338 271.806C593.831 274.005 592.636 275.975 590.931 277.419C589.227 278.863 587.108 279.701 584.894 279.806Z" fill="#89A666"/>
<path opacity="0.1" d="M581.991 249.24C579.641 249.501 577.36 250.248 575.001 250.397C572.641 250.546 570.051 249.97 568.56 248.098C567.755 247.095 567.357 245.821 566.677 244.722C566.035 243.699 565.154 242.855 564.113 242.263C563.46 243.579 563.089 245.021 563.025 246.495C562.961 247.968 563.206 249.438 563.743 250.807C564.28 252.176 565.098 253.413 566.141 254.435C567.184 255.457 568.428 256.241 569.791 256.734C571.155 257.227 572.605 257.418 574.047 257.295C575.488 257.172 576.887 256.737 578.151 256.019C579.415 255.302 580.514 254.318 581.375 253.133C582.237 251.948 582.841 250.59 583.147 249.149C582.76 249.17 582.378 249.197 581.991 249.24Z" fill="black"/>
<path opacity="0.1" d="M584.894 279.806C583.14 279.887 581.394 279.505 579.827 278.697C578.26 277.888 576.925 276.68 575.951 275.191C574.976 273.701 574.396 271.98 574.267 270.195C574.137 268.409 574.462 266.62 575.21 265C576.017 265.557 576.711 266.267 577.256 267.091C577.983 268.205 578.422 269.496 579.275 270.52C580.845 272.424 583.571 273.043 586.024 272.931C588.478 272.819 590.853 272.104 593.302 271.864C593.642 271.832 593.987 271.811 594.348 271.8C593.842 274.002 592.645 275.975 590.939 277.42C589.233 278.865 587.11 279.703 584.894 279.806Z" fill="black"/>
<path opacity="0.1" d="M560.179 296.569C558.843 296.633 557.508 296.428 556.25 295.966C554.993 295.503 553.836 294.793 552.848 293.876C551.859 292.958 551.057 291.851 550.488 290.617C549.92 289.383 549.595 288.048 549.532 286.686C549.453 285.06 549.754 283.439 550.411 281.955C551.251 282.525 551.98 283.249 552.561 284.089C553.351 285.225 553.848 286.537 554.774 287.587C556.491 289.534 559.379 290.222 561.979 290.158C564.501 290.105 566.928 289.475 569.434 289.278C568.813 291.315 567.591 293.108 565.935 294.413C564.279 295.717 562.269 296.47 560.179 296.569Z" fill="black"/>
<path opacity="0.1" d="M565.207 316.735C564.022 319.108 561.988 320.927 559.525 321.814C557.061 322.701 554.358 322.589 551.973 321.501C549.589 320.413 547.706 318.433 546.714 315.969C545.722 313.505 545.697 310.747 546.644 308.265C547.482 308.828 548.235 309.512 548.878 310.297C549.846 311.503 550.484 312.868 551.604 313.988C553.697 316.068 557.045 316.927 560.038 317.007C561.764 317.021 563.491 316.93 565.207 316.735Z" fill="black"/>
<path d="M57.5137 329.781C55.3582 325.706 57.8067 320.714 60.6214 317.076C63.4361 313.439 66.8682 309.663 66.795 305.028C66.6903 298.377 59.7634 294.446 54.2385 290.915C50.1296 288.299 46.3396 285.194 42.9482 281.667C41.528 280.308 40.3538 278.705 39.4795 276.931C38.3337 274.328 38.3703 271.368 38.4331 268.52C38.6738 259.019 39.1342 249.533 39.8143 240.061" stroke="#3F3D56" stroke-width="4" stroke-miterlimit="10"/>
<path d="M29.2879 239.538C29.3666 237.8 29.8732 236.11 30.761 234.624C31.6488 233.139 32.8893 231.905 34.368 231.036L36.6491 235.634L36.5811 230.066C37.6692 229.741 38.8023 229.603 39.9347 229.655C41.9461 229.751 43.8843 230.453 45.5043 231.672C47.1244 232.891 48.3534 234.572 49.0361 236.504C49.7188 238.435 49.8244 240.529 49.3396 242.521C48.8549 244.514 47.8015 246.315 46.3126 247.697C44.8238 249.079 42.9664 249.98 40.9753 250.286C38.9842 250.591 36.9488 250.289 35.1265 249.415C33.3042 248.542 31.7769 247.137 30.7376 245.379C29.6984 243.621 29.1939 241.588 29.2879 239.538Z" fill="#89A666"/>
<path d="M47.4424 309.801C48.5107 311.917 50.2601 313.595 52.3974 314.552C54.5347 315.509 56.9298 315.688 59.1812 315.059C61.4325 314.429 63.4032 313.03 64.7626 311.095C66.1221 309.161 66.7878 306.809 66.648 304.433C66.5082 302.058 65.5715 299.803 63.9949 298.048C62.4183 296.293 60.2977 295.144 57.9887 294.794C55.6797 294.443 53.3227 294.913 51.313 296.124C49.3033 297.334 47.7631 299.213 46.9506 301.444L53.3125 306.719L46.3018 305.055C46.3048 306.707 46.6959 308.335 47.4424 309.801Z" fill="#89A666"/>
<path d="M52.4702 289.635C53.8059 289.699 55.1408 289.494 56.3987 289.032C57.6566 288.57 58.8129 287.86 59.8016 286.942C60.7903 286.024 61.5919 284.917 62.1608 283.683C62.7296 282.45 63.0546 281.114 63.117 279.752C63.1962 278.127 62.8949 276.505 62.2381 275.022C61.6298 273.635 60.731 272.401 59.6047 271.407C58.4785 270.413 57.1522 269.682 55.7192 269.267L55.7767 273.534L53.4695 268.883C50.772 268.754 48.1349 269.723 46.1383 271.576C44.1416 273.43 42.9489 276.016 42.8227 278.766C42.6964 281.516 43.6469 284.204 45.465 286.239C47.283 288.275 49.8198 289.491 52.5173 289.619L52.4702 289.635Z" fill="#89A666"/>
<path d="M27.7549 272.872C29.1064 272.964 30.4622 272.78 31.743 272.33C33.0238 271.881 34.2039 271.176 35.2142 270.257C36.2246 269.337 37.0449 268.221 37.6271 266.975C38.2093 265.728 38.5418 264.375 38.6052 262.996C38.6685 261.617 38.4613 260.239 37.9959 258.942C37.5304 257.645 36.8159 256.456 35.8942 255.444C34.9726 254.433 33.8622 253.618 32.6282 253.049C31.3941 252.48 30.0611 252.168 28.7071 252.13C26.8132 252.041 24.9328 252.497 23.2817 253.448L25.0815 258.472L21.3512 254.866C19.3669 256.71 18.1798 259.28 18.0499 262.013C18.0035 262.974 18.0916 263.937 18.3115 264.872C18.8178 267.071 20.0137 269.042 21.7179 270.486C23.422 271.929 25.5415 272.767 27.7549 272.872Z" fill="#89A666"/>
<path opacity="0.1" d="M30.6586 242.306C33.0077 242.567 35.2888 243.314 37.6484 243.463C40.0079 243.613 42.5977 243.037 44.0888 241.165C44.8945 240.162 45.2921 238.887 45.9722 237.789C46.6145 236.766 47.4953 235.921 48.5358 235.33C49.1894 236.645 49.5604 238.088 49.6242 239.561C49.688 241.034 49.4432 242.504 48.9059 243.874C48.3687 245.243 47.5514 246.48 46.5085 247.501C45.4657 248.523 44.2211 249.307 42.8579 249.8C41.4946 250.293 40.0439 250.485 38.6024 250.362C37.1609 250.238 35.7617 249.803 34.498 249.086C33.2344 248.368 32.1352 247.384 31.2738 246.199C30.4124 245.015 29.8085 243.657 29.5024 242.215C29.8895 242.237 30.2715 242.263 30.6586 242.306Z" fill="black"/>
<path opacity="0.1" d="M27.7549 272.872C29.5094 272.954 31.2547 272.572 32.8217 271.763C34.3887 270.954 35.7241 269.747 36.6984 268.257C37.6727 266.768 38.2529 265.047 38.3827 263.261C38.5125 261.476 38.1874 259.686 37.4391 258.066C36.6325 258.624 35.9381 259.333 35.3934 260.157C34.6662 261.272 34.2267 262.563 33.3739 263.587C31.8044 265.491 29.0786 266.109 26.6249 265.997C24.1711 265.885 21.7959 265.171 19.3474 264.931C19.0073 264.899 18.662 264.877 18.301 264.867C18.8068 267.068 20.0039 269.042 21.7102 270.487C23.4166 271.932 25.539 272.769 27.7549 272.872Z" fill="black"/>
<path opacity="0.1" d="M52.4702 289.635C53.8058 289.699 55.1408 289.494 56.3987 289.032C57.6566 288.57 58.8129 287.86 59.8016 286.942C60.7903 286.024 61.5919 284.917 62.1608 283.683C62.7296 282.45 63.0546 281.114 63.117 279.752C63.1962 278.127 62.8949 276.505 62.2381 275.022C61.3986 275.592 60.6696 276.315 60.0878 277.155C59.2978 278.291 58.8007 279.603 57.8747 280.654C56.1586 282.601 53.2707 283.289 50.6704 283.225C48.1487 283.171 45.7211 282.542 43.2151 282.345C43.8362 284.382 45.0579 286.175 46.7138 287.479C48.3698 288.784 50.3797 289.536 52.4702 289.635Z" fill="black"/>
<path opacity="0.1" d="M47.4424 309.801C48.6271 312.175 50.6615 313.993 53.1246 314.881C55.5878 315.768 58.2912 315.656 60.6757 314.568C63.0601 313.48 64.9431 311.499 65.935 309.036C66.927 306.572 66.952 303.814 66.005 301.332C65.1668 301.894 64.4141 302.579 63.771 303.364C62.8031 304.569 62.1648 305.935 61.0452 307.055C58.9524 309.135 55.6041 309.993 52.6114 310.073C50.8846 310.088 49.1586 309.997 47.4424 309.801Z" fill="black"/>
<path d="M352.365 279.8C352.375 278.507 352.087 277.23 351.526 276.07C350.964 274.911 350.144 273.901 349.132 273.123C349.006 268.232 345.584 264.237 341.184 263.619C340.844 261.957 340.081 260.416 338.972 259.15C337.863 257.884 336.446 256.938 334.864 256.408C334.479 256.283 334.086 256.189 333.687 256.125H333.572L333.368 256.098H333.195H333.023H332.798H332.662H332.29C327.801 256.098 324.066 259.597 323.297 264.211C320.393 263.528 317.73 264.413 317.254 266.285C317.131 266.782 317.158 267.304 317.332 267.784C317.824 269.235 319.425 270.622 321.596 271.31L321.879 271.395C322.02 271.438 322.161 271.47 322.303 271.502H322.397C321.599 273.237 321.485 275.218 322.08 277.036C322.675 278.854 323.933 280.369 325.593 281.267C325.528 281.304 325.465 281.345 325.405 281.39C325.137 281.641 324.923 281.946 324.777 282.286C324.253 283.224 323.845 284.226 323.564 285.267C323.354 286.158 323.318 287.091 323.04 287.971C322.564 289.571 321.34 290.974 321.199 292.676C321.136 293.433 321.256 294.324 320.728 294.841C320.596 294.956 320.456 295.062 320.309 295.156C319.939 295.414 319.625 295.748 319.388 296.137C319.234 296.458 319.027 296.751 318.776 297.001C318.3 297.369 317.516 297.332 317.28 297.897C317.045 298.462 317.652 299.129 317.51 299.748C317.395 300.249 316.856 300.478 316.464 300.814C316.025 301.3 315.718 301.894 315.574 302.537C314.793 302.691 313.988 302.667 313.216 302.467C312.445 302.267 311.726 301.896 311.112 301.38C311.322 301.929 311.477 302.499 311.572 303.081C310.95 302.404 309.924 302.206 309.165 301.854C308.187 301.397 307.314 300.736 306.602 299.913L307.973 299.721L301.904 290.334L300.114 289.961L301.721 293.102C301.589 293.166 301.474 293.26 301.383 293.377C301.292 293.493 301.229 293.629 301.197 293.774C301.111 294.123 301.09 294.484 301.135 294.841C301.22 295.683 301.358 296.518 301.548 297.342L302.014 299.55C302.053 299.758 302.104 299.962 302.165 300.164C301.559 300.141 300.952 300.211 300.366 300.372C299.163 299.918 297.91 299.615 296.635 299.47C296.355 299.42 296.067 299.435 295.793 299.513C295.482 299.659 295.212 299.883 295.008 300.164C293.962 301.397 293.033 302.729 292.235 304.143C288.976 309.924 284.623 314.969 280.547 320.196C277.733 321.364 274.897 322.474 272.056 323.572L265.95 325.946C264.731 326.421 263.465 326.906 262.168 326.821C261.582 326.783 260.87 326.693 260.541 327.199C260.38 327.45 260.255 327.723 260.169 328.01C259.955 328.01 259.74 328.063 259.541 328.074H259.505C259.118 327.093 258.783 326.042 258.04 325.327C257.89 325.351 257.749 325.412 257.628 325.505C257.508 325.598 257.412 325.72 257.349 325.86C257.203 326.138 257.114 326.442 256.946 326.698C256.617 327.189 256.047 327.429 255.638 327.845C255.23 328.261 254.974 328.911 254.535 329.317C253.919 329.773 253.198 330.058 252.442 330.143C251.309 330.415 250.217 330.838 249.193 331.402C248.815 331.639 248.411 331.828 247.99 331.967C247.526 332.058 247.051 332.074 246.582 332.015L243.349 331.775C243.061 331.737 242.769 331.75 242.486 331.813C242.153 331.937 241.869 332.17 241.68 332.476C241.491 332.782 241.406 333.143 241.439 333.503C241.479 333.861 241.589 334.206 241.765 334.518C241.94 334.83 242.177 335.102 242.459 335.317C243.021 335.736 243.642 336.065 244.301 336.293C247.111 337.402 250.007 338.268 252.96 338.88V339.546C255.006 340.597 257.266 341.145 259.557 341.146C259.726 341.16 259.895 341.128 260.049 341.056C260.261 340.893 260.408 340.658 260.462 340.394C261.148 338.303 261.582 336.134 261.754 333.935C262.159 333.909 262.554 333.806 262.921 333.631C264.036 333.322 265.139 334.101 266.285 334.229C267.698 334.383 269.011 333.546 270.345 333.029C270.539 332.954 270.732 332.89 270.926 332.826C270.545 333.328 270.096 333.772 269.592 334.143C269.037 334.549 268.415 334.847 267.871 335.269C267.418 335.69 266.934 336.073 266.421 336.415C266.06 336.587 265.688 336.733 265.307 336.853C264.755 337.058 264.228 337.328 263.737 337.658C263.298 337.922 262.925 338.288 262.649 338.725C262.51 338.929 262.425 339.166 262.401 339.413C262.377 339.661 262.416 339.91 262.513 340.138C262.611 340.366 262.764 340.564 262.958 340.715C263.152 340.865 263.381 340.962 263.622 340.997C264.059 341.076 264.505 341.089 264.946 341.034C266.693 340.901 268.436 340.736 270.178 340.576C270.915 340.525 271.648 340.418 272.37 340.256C272.752 340.16 273.129 340.032 273.51 339.93C274.162 339.755 274.83 339.653 275.504 339.626C275.699 339.611 275.896 339.63 276.085 339.685C276.493 339.818 276.78 340.218 277.194 340.325C277.462 340.352 277.733 340.313 277.984 340.213C279.259 339.931 280.561 339.789 281.866 339.792C282.436 339.76 283.106 339.648 283.372 339.109C283.697 338.442 283.153 337.696 282.938 336.976C282.829 336.518 282.769 336.049 282.76 335.578C282.661 334.416 282.333 333.286 281.798 332.255C281.513 331.774 281.273 331.267 281.081 330.741C283.581 329.771 285.973 328.534 288.217 327.05C289.504 326.234 290.833 325.354 292.288 325.055C293.983 324.708 295.73 325.167 297.399 325.658C301.374 326.83 305.285 328.221 309.113 329.823C310.944 330.586 312.775 331.397 314.648 331.957C315.196 332.71 315.858 333.369 316.61 333.909C317.866 334.735 319.399 334.975 320.874 335.093C322.867 335.278 324.869 335.355 326.87 335.322C328.398 335.295 329.973 335.189 331.338 334.479C331.672 334.305 331.986 334.094 332.275 333.85C333.321 334.042 334.393 333.471 335.215 332.741C336.302 331.798 337.086 330.544 337.465 329.141C337.946 327.215 337.574 324.97 338.736 323.396C339.045 322.975 339.447 322.634 339.751 322.207C340.125 321.636 340.308 320.957 340.274 320.271L340.326 320.191C340.589 319.572 340.765 318.919 340.85 318.25C340.987 317.727 341.162 317.215 341.373 316.719C341.963 315.231 342.476 313.712 342.911 312.169C343.213 311.146 343.451 310.104 343.622 309.049C343.748 308.207 343.821 307.359 343.889 306.511C343.973 305.183 344.226 303.873 344.643 302.612C345.675 299.603 346.259 296.453 346.374 293.268C346.374 293.204 346.374 293.145 346.374 293.081C347.893 292.911 349.295 292.17 350.307 291.002C351.318 289.834 351.865 288.324 351.842 286.766C351.843 285.827 351.65 284.899 351.277 284.041C351.998 282.749 352.374 281.287 352.365 279.8ZM322.779 316.447C322.868 316.772 322.972 317.098 323.077 317.423C322.596 316.938 322.12 316.436 321.633 315.956C321.827 316.015 322.02 316.079 322.208 316.148C322.409 316.229 322.602 316.329 322.784 316.447H322.779ZM320.435 314.847C317.578 312.319 314.272 310.356 311.347 307.913C312.917 308.719 314.486 309.652 316.056 310.548C317.883 311.615 319.732 312.635 321.602 313.609C321.295 314.084 320.905 314.496 320.451 314.825L320.435 314.847ZM321.654 308.479L321.79 308.335C321.79 308.692 321.79 309.028 321.79 309.332C321.534 309.247 321.267 309.161 321.021 309.065C321.247 308.877 321.46 308.674 321.659 308.457L321.654 308.479ZM296.504 315.327C297.681 313.971 298.704 312.484 299.555 310.895C300.685 312.916 302.526 314.372 304.096 316.063C301.574 315.7 299.047 315.418 296.51 315.306L296.504 315.327Z" fill="url(#paint0_linear_7_279)"/>
<path d="M300.585 290.739L302.39 291.113L308.538 300.372L305.822 300.745L300.585 290.739Z" fill="#2F2E41"/>
<path d="M256.873 328.319C257.36 329.96 257.96 331.564 258.668 333.119C260.705 332.685 262.708 332.102 264.663 331.375C264.285 330.774 263.869 330.199 263.418 329.653C262.938 329.108 262.363 328.658 261.723 328.325C261.101 328.047 260.331 328.255 259.667 328.293C258.736 328.328 257.804 328.337 256.873 328.319Z" fill="#FBBEBE"/>
<path d="M261.734 330.794C260.719 330.469 260.096 329.423 259.683 328.415C259.269 327.407 258.935 326.308 258.15 325.567C258 325.591 257.859 325.652 257.739 325.745C257.618 325.838 257.522 325.96 257.459 326.1C257.307 326.367 257.218 326.671 257.046 326.927C256.721 327.407 256.146 327.642 255.733 328.053C255.319 328.463 255.063 329.087 254.618 329.498C254.001 329.95 253.281 330.233 252.526 330.319C251.385 330.583 250.284 330.999 249.25 331.557C248.868 331.783 248.46 331.962 248.037 332.09C247.569 332.181 247.091 332.197 246.619 332.138L243.359 331.898C243.07 331.861 242.776 331.876 242.491 331.941C242.159 332.058 241.875 332.287 241.685 332.588C241.496 332.89 241.411 333.248 241.444 333.605C241.488 333.96 241.603 334.303 241.783 334.61C241.963 334.918 242.204 335.184 242.491 335.391C243.057 335.804 243.682 336.128 244.343 336.351C247.183 337.44 250.105 338.291 253.08 338.896V339.552C255.148 340.595 257.423 341.142 259.73 341.152C259.909 341.168 260.089 341.136 260.253 341.061C260.465 340.903 260.614 340.672 260.671 340.41C261.454 338.08 261.91 335.649 262.027 333.189C262.087 332.567 262.041 331.939 261.891 331.333C261.713 330.735 262.32 330.986 261.754 330.751" fill="#2F2E41"/>
<path d="M324.223 318.271C314.56 318.868 305.017 315.978 295.338 315.668C294.136 315.594 292.931 315.673 291.749 315.903C290.516 316.24 289.323 316.712 288.191 317.311C283.006 319.77 277.638 321.807 272.276 323.844L266.123 326.18C264.888 326.645 263.617 327.119 262.304 327.039C261.718 327.002 261.001 326.911 260.666 327.413C259.667 328.922 260.143 331.146 260.802 332.842C261.017 333.375 261.378 333.989 261.953 334.053C262.36 334.024 262.759 333.921 263.13 333.749C264.25 333.445 265.37 334.213 266.521 334.335C267.949 334.49 269.273 333.663 270.617 333.157C272.846 332.319 275.284 332.346 277.628 331.946C281.562 331.279 285.204 329.418 288.615 327.295C289.912 326.49 291.231 325.626 292.717 325.332C294.427 324.991 296.191 325.439 297.87 325.924C301.874 327.08 305.815 328.449 309.678 330.026C311.689 330.916 313.75 331.682 315.852 332.319C320.431 333.549 325.276 333.261 329.685 331.498C331.254 330.874 332.908 329.775 332.997 328.074C333.049 327.103 332.311 326.25 331.819 325.407C331.5 324.874 331.186 324.34 330.841 323.834C329.177 321.359 327.158 318.09 324.223 318.271Z" fill="#2F2E41"/>
<path opacity="0.1" d="M324.223 318.271C314.56 318.868 305.017 315.978 295.338 315.668C294.136 315.594 292.931 315.673 291.749 315.903C290.516 316.24 289.323 316.712 288.191 317.311C283.006 319.77 277.638 321.807 272.276 323.844L266.123 326.18C264.888 326.645 263.617 327.119 262.304 327.039C261.718 327.002 261.001 326.911 260.666 327.413C259.667 328.922 260.143 331.146 260.802 332.842C261.017 333.375 261.378 333.989 261.953 334.053C262.36 334.024 262.759 333.921 263.13 333.749C264.25 333.445 265.37 334.213 266.521 334.335C267.949 334.49 269.273 333.663 270.617 333.157C272.846 332.319 275.284 332.346 277.628 331.946C281.562 331.279 285.204 329.418 288.615 327.295C289.912 326.49 291.231 325.626 292.717 325.332C294.427 324.991 296.191 325.439 297.87 325.924C301.874 327.08 305.815 328.449 309.678 330.026C311.689 330.916 313.75 331.682 315.852 332.319C320.431 333.549 325.276 333.261 329.685 331.498C331.254 330.874 332.908 329.775 332.997 328.074C333.049 327.103 332.311 326.25 331.819 325.407C331.5 324.874 331.186 324.34 330.841 323.834C329.177 321.359 327.158 318.09 324.223 318.271Z" fill="black"/>
<path d="M275.42 328.799C276.934 329.322 278.458 329.806 279.993 330.25C280.856 328.805 282.467 327.802 282.834 326.154C282.854 326.082 282.854 326.007 282.834 325.935C282.794 325.865 282.733 325.809 282.661 325.775C281.558 325.155 280.334 324.791 279.077 324.708C278.083 324.644 277.633 325.7 277.183 326.442C277.026 326.741 275.823 328.938 275.42 328.799Z" fill="#FBBEBE"/>
<path d="M277.549 327.743C277.098 327.667 276.667 327.495 276.284 327.238C275.901 326.982 275.575 326.647 275.326 326.255C275.111 325.876 274.886 325.364 274.457 325.391C274.028 325.418 273.882 325.898 273.793 326.298C273.503 327.792 273.085 329.257 272.543 330.677C271.996 332.1 271.07 333.34 269.869 334.255C269.309 334.65 268.687 334.949 268.137 335.365C267.68 335.781 267.19 336.159 266.672 336.495C266.308 336.665 265.932 336.808 265.548 336.922C264.984 337.123 264.445 337.39 263.941 337.717C263.5 337.98 263.126 338.346 262.848 338.784C262.714 339.006 262.635 339.258 262.619 339.518C262.603 339.779 262.649 340.039 262.754 340.277C262.867 340.47 263.018 340.637 263.198 340.767C263.379 340.896 263.584 340.986 263.8 341.029C264.241 341.104 264.69 341.114 265.134 341.061C266.897 340.928 268.655 340.768 270.413 340.608C271.157 340.561 271.897 340.457 272.626 340.298C273.013 340.202 273.39 340.074 273.772 339.973C274.431 339.802 275.106 339.702 275.786 339.674C275.983 339.659 276.182 339.679 276.372 339.733C276.78 339.866 277.068 340.266 277.487 340.362C277.756 340.391 278.029 340.354 278.282 340.256C279.569 339.978 280.88 339.839 282.195 339.84C282.771 339.808 283.451 339.696 283.713 339.168C284.042 338.512 283.498 337.776 283.278 337.072C283.17 336.621 283.108 336.159 283.095 335.695C282.996 334.549 282.667 333.437 282.127 332.426C281.677 331.583 281.081 330.655 281.379 329.759C281.54 329.48 281.641 329.169 281.677 328.847C281.604 327.402 278.345 327.935 277.549 327.743Z" fill="#2F2E41"/>
<path d="M309.736 302.473C308.024 301.703 306.652 300.314 305.885 298.574C305.728 298.201 305.592 297.812 305.44 297.433C304.931 296.181 304.143 295.067 303.138 294.18C303.031 294.059 302.899 293.963 302.752 293.9C302.604 293.836 302.445 293.806 302.286 293.812C302.131 293.858 301.991 293.946 301.881 294.066C301.771 294.186 301.694 294.334 301.658 294.494C301.568 294.842 301.545 295.204 301.59 295.561C301.679 296.389 301.819 297.21 302.008 298.02L302.479 300.196C302.539 300.53 302.637 300.856 302.772 301.166C302.974 301.531 303.24 301.855 303.557 302.121C303.986 302.526 304.42 302.916 304.86 303.294C305.102 303.518 305.367 303.715 305.65 303.881C306.114 304.105 306.61 304.253 307.12 304.318C309.04 304.681 310.991 305.204 312.608 306.452C312.608 306.452 312.608 304.996 312.571 304.852C312.552 304.43 312.41 304.023 312.163 303.684C311.556 303.017 310.51 302.82 309.736 302.473Z" fill="#FBBEBE"/>
<path opacity="0.1" d="M309.736 302.473C308.024 301.703 306.652 300.314 305.885 298.574C305.728 298.201 305.592 297.812 305.44 297.433C304.931 296.181 304.143 295.067 303.138 294.18C303.031 294.059 302.899 293.963 302.752 293.9C302.604 293.836 302.445 293.806 302.286 293.812C302.131 293.858 301.991 293.946 301.881 294.066C301.771 294.186 301.694 294.334 301.658 294.494C301.568 294.842 301.545 295.204 301.59 295.561C301.679 296.389 301.819 297.21 302.008 298.02L302.479 300.196C302.539 300.53 302.637 300.856 302.772 301.166C302.974 301.531 303.24 301.855 303.557 302.121C303.986 302.526 304.42 302.916 304.86 303.294C305.102 303.518 305.367 303.715 305.65 303.881C306.114 304.105 306.61 304.253 307.12 304.318C309.04 304.681 310.991 305.204 312.608 306.452C312.608 306.452 312.608 304.996 312.571 304.852C312.552 304.43 312.41 304.023 312.163 303.684C311.556 303.017 310.51 302.82 309.736 302.473Z" fill="black"/>
<path d="M329.407 285.833C330.705 285.833 331.757 284.753 331.757 283.422C331.757 282.09 330.705 281.011 329.407 281.011C328.11 281.011 327.058 282.09 327.058 283.422C327.058 284.753 328.11 285.833 329.407 285.833Z" fill="#2F2E41"/>
<path d="M327.953 281.966C327.322 281.819 326.661 281.916 326.096 282.238C325.824 282.483 325.608 282.785 325.463 283.123C324.934 284.044 324.523 285.03 324.238 286.057C324.029 286.937 323.993 287.854 323.715 288.723C323.234 290.323 321.999 291.683 321.858 293.353C321.795 294.1 321.916 294.98 321.382 295.486C321.249 295.6 321.107 295.701 320.958 295.79C320.586 296.045 320.271 296.375 320.032 296.761C319.872 297.107 319.65 297.42 319.378 297.684C318.897 298.046 318.107 298.009 317.871 298.569C317.636 299.129 318.243 299.78 318.101 300.388C317.986 300.884 317.442 301.113 317.055 301.454C316.614 301.931 316.305 302.518 316.16 303.156C315.375 303.307 314.566 303.282 313.79 303.084C313.014 302.886 312.29 302.52 311.666 302.009C312.32 303.657 312.336 305.476 312.362 307.252C312.438 307.82 312.289 308.395 311.949 308.852C313.822 308.895 315.643 309.385 317.468 309.828C318.249 310.095 319.094 310.095 319.875 309.828C320.293 309.599 320.666 309.295 320.979 308.932C321.973 307.903 323.014 306.799 323.255 305.364C323.319 304.557 323.332 303.746 323.297 302.937C323.393 301.938 323.594 300.953 323.898 299.998C324.424 298.016 324.774 295.991 324.945 293.945C325.055 292.681 326.122 291.668 326.687 290.537C327.733 288.403 328.832 286.19 328.916 283.801C328.989 283.022 328.727 282.067 327.953 281.966Z" fill="#2F2E41"/>
<path opacity="0.1" d="M327.953 281.966C327.322 281.819 326.661 281.916 326.096 282.238C325.824 282.483 325.608 282.785 325.463 283.123C324.934 284.044 324.523 285.03 324.238 286.057C324.029 286.937 323.993 287.854 323.715 288.723C323.234 290.323 321.999 291.683 321.858 293.353C321.795 294.1 321.916 294.98 321.382 295.486C321.249 295.6 321.107 295.701 320.958 295.79C320.586 296.045 320.271 296.375 320.032 296.761C319.872 297.107 319.65 297.42 319.378 297.684C318.897 298.046 318.107 298.009 317.871 298.569C317.636 299.129 318.243 299.78 318.101 300.388C317.986 300.884 317.442 301.113 317.055 301.454C316.614 301.931 316.305 302.518 316.16 303.156C315.375 303.307 314.566 303.282 313.79 303.084C313.014 302.886 312.29 302.52 311.666 302.009C312.32 303.657 312.336 305.476 312.362 307.252C312.438 307.82 312.289 308.395 311.949 308.852C313.822 308.895 315.643 309.385 317.468 309.828C318.249 310.095 319.094 310.095 319.875 309.828C320.293 309.599 320.666 309.295 320.979 308.932C321.973 307.903 323.014 306.799 323.255 305.364C323.319 304.557 323.332 303.746 323.297 302.937C323.393 301.938 323.594 300.953 323.898 299.998C324.424 298.016 324.774 295.991 324.945 293.945C325.055 292.681 326.122 291.668 326.687 290.537C327.733 288.403 328.832 286.19 328.916 283.801C328.989 283.022 328.727 282.067 327.953 281.966Z" fill="black"/>
<path d="M325.756 320.346C323.741 319.37 322.271 317.551 320.644 315.994C317.536 313.017 313.738 310.916 310.473 308.127C308.313 306.281 306.377 304.132 303.996 302.585C301.903 301.223 299.528 300.375 297.059 300.105C296.777 300.055 296.487 300.069 296.211 300.148C295.9 300.29 295.628 300.51 295.421 300.788C294.367 301.999 293.429 303.312 292.622 304.708C288.484 311.865 282.609 317.887 277.738 324.548C277.582 324.705 277.489 324.916 277.478 325.14C277.468 325.363 277.54 325.582 277.68 325.754L278.669 327.733C279.224 328.837 280.113 330.127 281.285 329.909C281.823 329.751 282.304 329.438 282.671 329.007L287.118 324.671L291.78 320.127C294.511 317.46 297.289 314.74 299.073 311.337C300.465 313.796 302.934 315.407 304.629 317.663C305.273 318.516 305.796 319.46 306.372 320.367C307.298 321.823 308.344 323.188 309.39 324.548L314.743 331.509C315.418 332.5 316.255 333.366 317.217 334.069C318.483 334.885 320.027 335.103 321.518 335.237C323.527 335.424 325.544 335.498 327.561 335.461C329.099 335.434 330.7 335.333 332.06 334.634C333.42 333.935 334.577 332.501 334.503 330.938C334.42 330.119 334.157 329.33 333.734 328.629C331.846 325.055 329.345 322.068 325.756 320.346Z" fill="#2F2E41"/>
<path d="M330.851 286.942C331.848 286.942 332.656 286.113 332.656 285.091C332.656 284.069 331.848 283.241 330.851 283.241C329.855 283.241 329.046 284.069 329.046 285.091C329.046 286.113 329.855 286.942 330.851 286.942Z" fill="#E8E8F0"/>
<path d="M330.454 283.699C330.862 284.527 330.933 285.485 330.653 286.366C330.374 287.233 329.983 288.058 329.491 288.819C329.068 289.606 328.561 290.343 327.979 291.017C330.768 291.155 333.473 290.041 335.932 288.686C337.914 287.619 339.892 286.259 340.949 284.227C340.634 284.304 340.308 284.312 339.99 284.253C339.672 284.193 339.369 284.066 339.102 283.881C338.57 283.503 338.093 283.05 337.684 282.537L336.287 280.937C335.957 280.585 335.668 280.197 335.424 279.779C335.118 279.211 334.989 278.562 335.053 277.918C334.497 278.511 333.875 279.037 333.201 279.486C332.201 280.152 331.108 280.632 330.098 281.288C329.742 281.523 328.952 281.902 329.156 282.355C329.36 282.809 330.171 283.187 330.454 283.699Z" fill="#FBBEBE"/>
<path opacity="0.1" d="M330.454 283.699C330.862 284.527 330.933 285.485 330.653 286.366C330.374 287.233 329.983 288.058 329.491 288.819C329.068 289.606 328.561 290.343 327.979 291.017C330.768 291.155 333.473 290.041 335.932 288.686C337.914 287.619 339.892 286.259 340.949 284.227C340.634 284.304 340.308 284.312 339.99 284.253C339.672 284.193 339.369 284.066 339.102 283.881C338.57 283.503 338.093 283.05 337.684 282.537L336.287 280.937C335.957 280.585 335.668 280.197 335.424 279.779C335.118 279.211 334.989 278.562 335.053 277.918C334.497 278.511 333.875 279.037 333.201 279.486C332.201 280.152 331.108 280.632 330.098 281.288C329.742 281.523 328.952 281.902 329.156 282.355C329.36 282.809 330.171 283.187 330.454 283.699Z" fill="black"/>
<path d="M330.49 283.977C330.208 284.383 330.057 284.868 330.057 285.366C330.057 285.864 330.208 286.349 330.49 286.755C330.569 286.857 330.867 287.491 331.014 287.497C331.137 287.486 331.252 287.427 331.333 287.331C331.965 286.658 332.555 285.946 333.101 285.198C333.653 284.441 334.45 283.908 335.351 283.694C336.444 283.518 337.496 284.11 338.453 284.675C338.865 284.884 339.223 285.187 339.5 285.561C339.701 285.931 339.821 286.343 339.85 286.766C340.125 289.309 340.23 291.868 340.164 294.425C340.215 296.269 340.096 298.113 339.808 299.934C339.631 300.873 339.364 301.79 339.238 302.74C339.146 303.575 339.11 304.416 339.128 305.257V308.777C339.105 309.422 339.151 310.068 339.264 310.703C339.48 311.46 339.733 312.206 340.023 312.937C340.278 313.808 340.453 314.701 340.546 315.604L341.017 319.247C341.169 320.399 341.279 321.652 340.593 322.575C340.29 322.996 339.882 323.327 339.547 323.743C338.37 325.268 338.762 327.482 338.239 329.375C337.852 330.765 337.06 332.001 335.968 332.922C335.136 333.642 334.059 334.213 332.981 333.989C331.532 333.711 330.658 332.17 330.26 330.714C329.863 329.258 329.737 327.669 328.863 326.447C328.162 325.439 327.079 324.81 326.101 324.09C325.123 323.37 324.16 322.447 323.945 321.231C323.851 320.698 323.909 320.164 323.856 319.631C323.779 318.951 323.523 318.305 323.116 317.761C322.709 317.217 322.166 316.794 321.544 316.538C320.801 316.244 319.88 316.138 319.451 315.471C320.516 314.789 321.293 313.725 321.628 312.489C321.952 311.272 322.128 310.018 322.151 308.756L322.402 304.521C322.512 302.628 322.564 300.75 323.38 299.049C323.747 298.292 324.202 297.577 324.578 296.825C325.083 295.769 325.513 294.679 325.866 293.561C326.457 291.827 327.053 290.089 327.582 288.334C327.793 287.484 328.109 286.665 328.523 285.897C329.01 285.097 329.653 284.137 330.49 283.977Z" fill="#E8E8F0"/>
<path d="M321.267 311.492L322.365 311.529L322.601 309.839C322.632 309.5 322.71 309.168 322.831 308.852C323.013 308.518 323.225 308.202 323.464 307.908C324.547 306.351 324.469 304.281 324.735 302.388C325.091 299.865 326.127 297.497 327.153 295.172L329.287 290.323C329.477 289.925 329.63 289.509 329.742 289.081C329.836 288.609 329.879 288.128 329.873 287.646C329.873 286.899 330.114 284.174 330.129 283.422C330.129 283.145 329.533 283.299 329.407 283.054C329.141 282.521 328.774 283.971 328.272 284.291C327.799 284.66 327.454 285.174 327.289 285.758C326.828 286.979 326.546 288.265 326.117 289.491C325.74 290.748 325.054 291.884 324.123 292.793C323.689 293.188 323.182 293.497 322.768 293.913C321.439 295.252 321.314 297.364 321.267 299.246C321.235 300.414 321.021 311.492 321.267 311.492Z" fill="#2F2E41"/>
<path d="M337.093 281.955C336.047 282.382 335.44 283.555 335.142 284.697C334.843 285.838 334.718 287.043 334.142 288.057C332.803 290.435 329.387 291.129 328.44 293.699C328.198 294.568 328.07 295.464 328.058 296.366C327.89 298.206 327.294 299.988 327.116 301.828C327.024 303.259 327.057 304.696 327.215 306.121L328.413 320.644C328.646 322.783 328.524 324.947 328.052 327.044C329.281 327.225 330.534 327.014 331.641 326.442C332.766 325.908 333.792 325.204 334.87 324.596C336.727 323.53 338.778 322.81 340.4 321.396C340.694 321.163 340.947 320.879 341.148 320.559C341.408 319.948 341.584 319.304 341.671 318.644C341.809 318.13 341.983 317.628 342.194 317.14C342.795 315.676 343.319 314.181 343.764 312.66C344.068 311.651 344.308 310.623 344.48 309.583C344.611 308.756 344.679 307.919 344.752 307.087C344.836 305.778 345.091 304.486 345.511 303.246C346.549 300.288 347.136 297.186 347.253 294.046C347.289 293.593 347.259 293.136 347.164 292.691C346.984 292.152 346.741 291.637 346.442 291.155C345.945 290.201 345.647 289.15 345.176 288.185C344.13 285.998 342.252 284.339 340.29 282.947C339.285 282.27 338.181 281.534 337.093 281.955Z" fill="#2F2E41"/>
<path d="M312.116 305.652C311.266 305.199 310.497 304.604 309.84 303.892C309.542 303.534 309.317 303.134 308.993 302.782C308.224 301.947 307.227 301.368 306.131 301.118C305.042 300.874 303.929 300.765 302.814 300.793C302.07 300.741 301.322 300.833 300.611 301.065C300.255 301.184 299.933 301.393 299.677 301.673C299.421 301.953 299.238 302.294 299.147 302.665C298.984 303.572 299.565 304.452 300.261 305.028C300.908 305.567 301.669 305.945 302.484 306.132C303.149 306.249 303.82 306.329 304.493 306.372C308.449 306.793 311.98 308.985 315.444 310.985C318.489 312.738 321.593 314.379 324.756 315.908C324.882 314.943 324.934 313.969 324.913 312.996C324.913 312.271 324.861 311.161 324.186 310.735C323.401 310.233 322.093 310.121 321.225 309.823C319.186 309.144 317.195 308.325 315.266 307.369C314.172 306.831 313.126 306.26 312.116 305.652Z" fill="#FBBEBE"/>
<path d="M329.407 282.873C333.3 282.873 336.455 279.637 336.455 275.646C336.455 271.654 333.3 268.419 329.407 268.419C325.515 268.419 322.36 271.654 322.36 275.646C322.36 279.637 325.515 282.873 329.407 282.873Z" fill="#FBBEBE"/>
<path d="M339.107 290.147C338.546 290.951 338.088 291.824 337.742 292.745C336.868 294.574 335.503 296.142 334.822 298.078C334.1 300.089 334.127 302.484 332.73 304.068C332.449 304.308 332.237 304.621 332.118 304.975C332.109 305.195 332.085 305.414 332.044 305.631C331.846 306.207 330.92 306.233 330.747 306.82C330.7 306.991 330.747 307.177 330.663 307.353C330.522 307.732 330.035 307.785 329.706 308.015C329.02 308.489 329.183 309.588 328.659 310.271C328.447 310.524 328.172 310.716 327.863 310.826C327.555 310.937 327.223 310.962 326.901 310.9C326.26 310.762 325.643 310.527 325.07 310.201C324.869 310.086 324.646 310.015 324.416 309.993C324.143 309.999 323.878 310.09 323.658 310.255C322.355 311.097 321.743 312.772 321.753 314.351C321.845 315.93 322.212 317.479 322.836 318.927C322.91 319.177 323.033 319.409 323.197 319.61C323.626 320.074 324.38 319.999 324.955 319.738C325.494 319.412 326.068 319.151 326.666 318.959C327.754 318.756 328.822 319.524 329.925 319.46C330.733 319.335 331.493 318.993 332.128 318.468C333.249 317.775 334.252 316.901 335.1 315.882C335.581 315.236 335.937 314.5 336.361 313.812C336.902 312.967 337.496 312.158 338.139 311.391L342.205 306.319C342.612 305.838 342.978 305.323 343.298 304.777C343.665 304.04 343.951 303.264 344.151 302.462C344.586 301.126 344.869 299.742 344.993 298.34C345.014 297.178 344.914 296.018 344.695 294.878C344.558 293.745 344.264 292.636 343.821 291.587C342.916 289.721 340.766 288.174 339.107 290.147Z" fill="#2F2E41"/>
<path d="M353.265 280.734C353.27 279.452 352.977 278.188 352.41 277.045C351.842 275.901 351.016 274.912 350 274.158C349.969 271.883 349.147 269.693 347.68 267.979C346.213 266.265 344.197 265.137 341.99 264.797C341.563 262.643 340.405 260.711 338.718 259.341C337.031 257.972 334.924 257.254 332.768 257.314C330.613 257.373 328.547 258.206 326.935 259.666C325.323 261.125 324.268 263.118 323.956 265.293C321.026 264.621 318.347 265.496 317.861 267.336C317.338 269.261 319.43 271.512 322.528 272.366C323.498 272.645 324.509 272.748 325.515 272.67C326.235 273.748 327.169 274.66 328.255 275.349C329.342 276.038 330.558 276.488 331.825 276.67C332.197 278.409 333.038 280.009 334.253 281.287C335.469 282.566 337.01 283.473 338.704 283.907C339.173 285.062 339.901 286.088 340.829 286.905C340.829 287.129 340.792 287.358 340.792 287.593C340.758 288.413 340.888 289.231 341.172 289.999C341.457 290.766 341.891 291.467 342.448 292.06C343.005 292.652 343.674 293.123 344.414 293.445C345.155 293.767 345.951 293.933 346.756 293.933C347.561 293.933 348.358 293.767 349.098 293.445C349.839 293.123 350.508 292.652 351.065 292.06C351.622 291.467 352.056 290.766 352.34 289.999C352.625 289.231 352.754 288.413 352.721 287.593C352.721 286.672 352.526 285.763 352.15 284.926C352.886 283.657 353.271 282.208 353.265 280.734Z" fill="#CE4A4C"/>
<path opacity="0.1" d="M319.849 267.704C320.335 265.864 322.988 264.989 325.944 265.661C326.288 263.452 327.386 261.438 329.045 259.974C330.704 258.511 332.817 257.691 335.011 257.661C335.215 257.661 335.419 257.661 335.618 257.661C334.77 257.397 333.888 257.264 333.002 257.266C330.808 257.297 328.695 258.116 327.036 259.58C325.377 261.043 324.279 263.058 323.935 265.267C321.005 264.595 318.326 265.469 317.84 267.309C317.317 269.235 319.409 271.485 322.507 272.339C323.083 272.502 323.673 272.605 324.27 272.648C321.33 271.773 319.352 269.587 319.849 267.704Z" fill="black"/>
<path opacity="0.1" d="M342.78 287.966C342.78 287.731 342.78 287.502 342.817 287.273C341.889 286.459 341.161 285.434 340.693 284.281C339 283.842 337.46 282.933 336.245 281.654C335.03 280.375 334.188 278.777 333.813 277.038C332.545 276.857 331.329 276.408 330.243 275.719C329.156 275.03 328.223 274.116 327.503 273.038C326.917 273.085 326.328 273.069 325.745 272.99C326.468 273.983 327.378 274.821 328.422 275.452C329.466 276.084 330.622 276.498 331.825 276.67C332.197 278.409 333.038 280.009 334.253 281.287C335.469 282.566 337.01 283.473 338.705 283.907C339.173 285.062 339.901 286.088 340.829 286.905C340.829 287.129 340.792 287.358 340.792 287.593C340.765 289.228 341.374 290.807 342.486 291.986C343.597 293.165 345.121 293.848 346.725 293.886C345.554 293.426 344.55 292.613 343.845 291.555C343.14 290.497 342.768 289.245 342.78 287.966Z" fill="black"/>
<path d="M332.632 278.293C333.11 277.923 333.106 277.096 332.622 276.446C332.137 275.796 331.357 275.57 330.878 275.941C330.4 276.311 330.404 277.138 330.888 277.788C331.373 278.438 332.153 278.664 332.632 278.293Z" fill="#FBBEBE"/>
<path d="M164.175 314.255L171.144 310.079C170.202 308.438 168.998 306.968 167.581 305.732L154.439 309.897L164.735 303.727C162.185 302.303 159.316 301.581 156.41 301.631C153.503 301.682 150.66 302.503 148.159 304.013C145.658 305.524 143.586 307.672 142.147 310.247C140.708 312.822 139.952 315.734 139.952 318.698C139.952 328.122 147.449 328.447 156.694 328.447C165.938 328.447 173.436 328.122 173.436 318.698C173.441 316.309 172.951 313.946 171.997 311.764L164.175 314.255Z" fill="#89A666"/>
<path opacity="0.1" d="M165.949 323.418C165.207 322.659 164.378 321.995 163.479 321.439C162.219 320.58 160.905 319.706 159.414 319.418C158.106 319.162 156.757 319.38 155.422 319.3C153.106 319.156 150.925 318.137 149.306 316.442C148.354 315.439 147.606 314.207 146.46 313.439C145.18 312.663 143.669 312.381 142.202 312.644C141.776 312.704 141.355 312.792 140.941 312.905C140.285 314.763 139.95 316.723 139.952 318.698C139.952 328.122 147.449 328.447 156.694 328.447C161.183 328.447 165.253 328.373 168.261 327.215L167.738 326.26C167.263 325.239 166.662 324.284 165.949 323.418Z" fill="black"/>
</g>
<defs>
<linearGradient id="paint0_linear_7_279" x1="296.907" y1="341.152" x2="296.907" y2="256.008" gradientUnits="userSpaceOnUse">
<stop stop-color="#808080" stop-opacity="0.25"/>
<stop offset="0.54" stop-color="#808080" stop-opacity="0.12"/>
<stop offset="1" stop-color="#808080" stop-opacity="0.1"/>
</linearGradient>
<clipPath id="clip0_7_279">
<rect width="598" height="354" fill="white"/>
</clipPath>
</defs>
</svg>
