<svg width="26" height="25" viewBox="0 0 26 25" fill="none" xmlns="http://www.w3.org/2000/svg">
<path d="M21.9555 12.2221C20.6555 10.9027 18.9222 9.99993 17.1166 9.6527C16.3222 9.44437 15.5278 9.30548 14.7333 9.23604C16.7555 6.94437 16.3944 3.47215 14.0111 1.5277C11.6278 -0.41674 8.01664 -0.0695179 5.99442 2.22215C3.9722 4.51382 4.33331 7.98604 6.71664 9.93048C7.14998 10.2777 7.58331 10.5555 8.01664 10.6944V12.2221L6.86109 11.1805C5.84998 10.2083 4.18886 10.2083 3.10553 11.1805C2.09442 12.1527 2.0222 13.6805 3.03331 14.6527L6.35553 18.4027C6.49998 19.3749 6.86109 20.2777 7.36664 21.111C7.72775 21.736 8.23331 22.361 8.73886 22.8471V24.1666C8.73886 24.5833 9.02775 24.861 9.46109 24.861H19.2833C19.6444 24.861 20.0055 24.5138 20.0055 24.1666V22.361C21.3778 20.7638 22.1 18.7499 22.1 16.736V12.7083C22.1722 12.4305 22.1 12.2916 21.9555 12.2221ZM6.06664 5.69437C6.06664 3.4027 8.01664 1.59715 10.4 1.66659C12.7833 1.66659 14.6611 3.54159 14.5889 5.83326C14.5889 7.08326 14.0111 8.19437 13 8.95826V5.48604C12.9278 4.23604 11.8444 3.26382 10.5444 3.26382C9.24442 3.19437 8.08886 4.23604 8.08886 5.48604V9.09715C6.86109 8.4027 6.13886 7.08326 6.06664 5.69437ZM20.7278 16.6666C20.8 18.4721 20.15 20.2083 18.9222 21.5971C18.7778 21.736 18.6333 21.8749 18.6333 22.0833V23.5416H10.2555V22.5694C10.2555 22.361 10.1111 22.1527 9.96664 22.0138C9.46109 21.5971 9.02775 21.111 8.66664 20.486C8.23331 19.7916 7.94442 18.9583 7.79998 18.1249C7.79998 17.986 7.72775 17.8471 7.65553 17.7083L4.18886 13.7499C3.9722 13.5416 3.82775 13.2638 3.82775 12.9166C3.82775 12.6388 3.9722 12.2916 4.18886 12.0833C4.69442 11.6666 5.41664 11.6666 5.9222 12.0833L8.01664 14.0971V16.1805L9.38886 15.486V5.48604C9.46109 4.99993 9.89442 4.58326 10.4722 4.6527C10.9778 4.6527 11.4833 4.99993 11.4833 5.48604V13.4721L12.9278 13.7499V10.5555C13 10.486 13.0722 10.486 13.1444 10.4166C13.65 10.4166 14.1555 10.486 14.6611 10.5555V14.0971L15.8166 14.3055V10.6944L16.6833 10.9027C17.0444 10.9721 17.4055 11.111 17.7666 11.2499V14.7221L18.9222 14.9305V11.736C19.5722 12.0138 20.15 12.4305 20.6555 12.9166L20.7278 16.6666Z" fill="white"/>
</svg>
